<?xml version="1.0" encoding="utf-8"?>
<!-- Generated by IcoMoon.io -->
<!DOCTYPE svg PUBLIC "-//W3C//DTD SVG 1.1//EN" "http://www.w3.org/Graphics/SVG/1.1/DTD/svg11.dtd">
<svg version="1.1" xmlns="http://www.w3.org/2000/svg" xmlns:xlink="http://www.w3.org/1999/xlink" width="27" height="32" viewBox="0 0 27 32">
<path d="M13.142 2.371c-5.939 0-10.77 4.831-10.77 10.77 0 3.033 1.301 5.946 3.571 7.992l7.506 7.51 7.456-7.468c2.314-2.088 3.616-5.002 3.616-8.035 0-5.939-4.831-10.77-10.77-10.77h-0.609zM13.45 32l-9.14-9.147c-2.722-2.452-4.31-6.007-4.31-9.711 0-7.246 5.895-13.142 13.142-13.142h0.609c7.246 0 13.142 5.895 13.142 13.142 0 3.704-1.587 7.259-4.354 9.754l-9.088 9.105zM15.809 13.438c0 1.309-1.062 2.371-2.372 2.371s-2.371-1.062-2.371-2.371c0-1.309 1.061-2.371 2.371-2.371s2.372 1.062 2.372 2.371v0z"></path>
</svg>
