<?xml version="1.0" encoding="utf-8"?>
<!-- Generated by IcoMoon.io -->
<!DOCTYPE svg PUBLIC "-//W3C//DTD SVG 1.1//EN" "http://www.w3.org/Graphics/SVG/1.1/DTD/svg11.dtd">
<svg version="1.1" xmlns="http://www.w3.org/2000/svg" xmlns:xlink="http://www.w3.org/1999/xlink" width="32" height="32" viewBox="0 0 32 32">
<path d="M27.18 1.333h-22.359c-1.926 0-3.487 1.558-3.487 3.479v22.375c0 1.921 1.561 3.479 3.487 3.479h22.359c1.926 0 3.487-1.558 3.487-3.479v-22.375c-0-1.921-1.561-3.479-3.487-3.479zM21.71 5.495c0-0.452 0.367-0.819 0.82-0.819h3.966c0.453 0 0.82 0.367 0.82 0.819v3.957c0 0.452-0.367 0.819-0.82 0.819h-3.966c-0.453 0-0.82-0.366-0.82-0.819v-3.957zM16.034 10.406c3.115 0 5.641 2.52 5.641 5.628s-2.526 5.628-5.641 5.628-5.641-2.519-5.641-5.628c0-3.108 2.526-5.628 5.641-5.628zM27.385 26.437c0 0.452-0.367 0.819-0.82 0.819h-21.060c-0.453 0-0.821-0.367-0.821-0.819v-12.756h2.745c-0.206 0.75-0.317 1.539-0.317 2.354 0 4.909 4.003 8.902 8.923 8.902s8.923-3.994 8.923-8.902c0-0.814-0.111-1.603-0.317-2.354h2.744v12.756z"></path>
</svg>
