<?xml version="1.0" encoding="utf-8"?>
<!-- Generated by IcoMoon.io -->
<!DOCTYPE svg PUBLIC "-//W3C//DTD SVG 1.1//EN" "http://www.w3.org/Graphics/SVG/1.1/DTD/svg11.dtd">
<svg version="1.1" xmlns="http://www.w3.org/2000/svg" xmlns:xlink="http://www.w3.org/1999/xlink" width="32" height="32" viewBox="0 0 32 32">
<path d="M16 0c-8.837 0-16 7.163-16 16s7.163 16 16 16c8.838 0 16.001-7.163 16.001-16s-7.163-16-16.001-16zM25.034 12.138c0.008 0.196 0.014 0.393 0.014 0.589 0 5.985-4.557 12.887-12.888 12.887-2.559 0-4.939-0.749-6.944-2.035 0.354 0.040 0.714 0.064 1.081 0.064 2.122 0 4.075-0.725 5.626-1.943-1.984-0.032-3.657-1.342-4.232-3.145 0.277 0.052 0.56 0.084 0.853 0.084 0.412 0 0.813-0.060 1.193-0.16-2.072-0.417-3.634-2.247-3.634-4.443 0-0.020 0-0.040 0.002-0.060 0.61 0.345 1.309 0.549 2.051 0.569-1.217-0.813-2.015-2.199-2.015-3.77 0-0.829 0.222-1.61 0.612-2.275 2.235 2.74 5.573 4.543 9.338 4.731-0.078-0.328-0.118-0.677-0.118-1.034 0-2.5 2.028-4.527 4.532-4.527 1.302 0 2.48 0.545 3.305 1.43 1.034-0.204 2.003-0.581 2.876-1.102-0.337 1.058-1.056 1.947-1.991 2.508 0.917-0.112 1.791-0.357 2.602-0.713-0.607 0.905-1.376 1.703-2.261 2.344z"></path>
</svg>
